<svg viewBox="0 0 32 32" fill="none" xmlns="http://www.w3.org/2000/svg">
  <path d="M16 4.5L16 14" stroke="#34d399" stroke-width="2.2" stroke-linecap="round"/>
  <path d="M16 6.5Q12.5 4 9 6.5" stroke="#34d399" stroke-width="1.3" stroke-linecap="round" fill="none"/>
  <path d="M16 6.5Q19.5 4 23 6.5" stroke="#34d399" stroke-width="1.3" stroke-linecap="round" fill="none"/>
  <path d="M16 4.5Q13 2.5 11.5 4" stroke="#34d399" stroke-width=".9" stroke-linecap="round" fill="none" opacity=".45"/>
  <path d="M16 4.5Q19 2.5 20.5 4" stroke="#34d399" stroke-width=".9" stroke-linecap="round" fill="none" opacity=".45"/>
  <path d="M16 14Q15 18 10.5 22" stroke="#34d399" stroke-width="1.6" stroke-linecap="round" fill="none"/>
  <path d="M16 14Q17 18 21.5 22" stroke="#34d399" stroke-width="1.6" stroke-linecap="round" fill="none"/>
  <path d="M16 14L16 24.5" stroke="#34d399" stroke-width="1.6" stroke-linecap="round"/>
  <path d="M10.5 22Q8 24 6.5 26.5" stroke="#34d399" stroke-width=".9" stroke-linecap="round" fill="none" opacity=".4"/>
  <path d="M10.5 22Q11 25 12 27.5" stroke="#34d399" stroke-width=".9" stroke-linecap="round" fill="none" opacity=".4"/>
  <path d="M21.5 22Q24 24 25.5 26.5" stroke="#34d399" stroke-width=".9" stroke-linecap="round" fill="none" opacity=".4"/>
  <path d="M21.5 22Q21 25 20 27.5" stroke="#34d399" stroke-width=".9" stroke-linecap="round" fill="none" opacity=".4"/>
  <path d="M16 24.5Q14.5 27 14 29" stroke="#34d399" stroke-width=".7" stroke-linecap="round" fill="none" opacity=".3"/>
  <path d="M16 24.5Q17.5 27 18 29" stroke="#34d399" stroke-width=".7" stroke-linecap="round" fill="none" opacity=".3"/>
  <circle cx="16" cy="14" r="2.2" fill="rgba(52,211,153,.08)" stroke="#34d399" stroke-width="1"/>
  <circle cx="16" cy="4.5" r="1.6" fill="rgba(52,211,153,.1)" stroke="#34d399" stroke-width=".9"/>
</svg>
